<?xml version="1.0" encoding="UTF-8" standalone="no"?>
<!-- Uploaded to: SVG Repo, www.svgrepo.com, Generator: SVG Repo Mixer Tools -->

<svg
   fill="#000000"
   height="800"
   width="800"
   version="1.1"
   id="Capa_1"
   viewBox="0 0 67.671 67.671"
   xml:space="preserve"
   sodipodi:docname="export-svgrepo-com.svg"
   xmlns:inkscape="http://www.inkscape.org/namespaces/inkscape"
   xmlns:sodipodi="http://sodipodi.sourceforge.net/DTD/sodipodi-0.dtd"
   xmlns="http://www.w3.org/2000/svg"
   xmlns:svg="http://www.w3.org/2000/svg"><defs
   id="defs36588"><inkscape:path-effect
     effect="powerclip"
     id="path-effect34468"
     is_visible="true"
     lpeversion="1"
     inverse="true"
     flatten="false"
     hide_clip="false"
     message="Use fill-rule evenodd on &lt;b&gt;fill and stroke&lt;/b&gt; dialog if no flatten result after convert clip to paths." /><inkscape:path-effect
     effect="powerclip"
     id="path-effect34945"
     is_visible="true"
     lpeversion="1"
     inverse="true"
     flatten="false"
     hide_clip="false"
     message="Use fill-rule evenodd on &lt;b&gt;fill and stroke&lt;/b&gt; dialog if no flatten result after convert clip to paths." /><clipPath
     clipPathUnits="userSpaceOnUse"
     id="clipath_lpe_path-effect34468"><g
       id="g36747"
       style="display:none;stroke-width:0.999999"><ellipse
         style="fill:#090909;fill-opacity:1;stroke:#000000;stroke-width:5.00001;stroke-linecap:round;stroke-linejoin:round;stroke-miterlimit:4;stroke-dasharray:none;stroke-opacity:1"
         id="ellipse36741"
         cy="341.96042"
         cx="198.45587"
         rx="19.794001"
         ry="19.793974"
         d="m 218.24987,341.96042 a 19.794001,19.793974 0 0 1 -19.794,19.79397 19.794001,19.793974 0 0 1 -19.794,-19.79397 19.794001,19.793974 0 0 1 19.794,-19.79398 19.794001,19.793974 0 0 1 19.794,19.79398 z" /><ellipse
         style="fill:#000000;fill-opacity:1;stroke:#000000;stroke-width:5.00001;stroke-linecap:round;stroke-linejoin:round;stroke-miterlimit:4;stroke-dasharray:none;stroke-opacity:1"
         id="ellipse36743"
         cy="341.96042"
         cx="244.62772"
         rx="19.794001"
         ry="19.793974"
         d="m 264.42172,341.96042 a 19.794001,19.793974 0 0 1 -19.794,19.79397 19.794001,19.793974 0 0 1 -19.794,-19.79397 19.794001,19.793974 0 0 1 19.794,-19.79398 19.794001,19.793974 0 0 1 19.794,19.79398 z" /><ellipse
         style="fill:#000000;fill-opacity:1;stroke:#000000;stroke-width:4.99997;stroke-linecap:round;stroke-linejoin:round;stroke-miterlimit:4;stroke-dasharray:none;stroke-opacity:1"
         id="ellipse36745"
         cx="290.79953"
         cy="341.96042"
         rx="19.793989"
         ry="19.793962"
         d="m 310.59352,341.96042 a 19.793989,19.793962 0 0 1 -19.79399,19.79396 19.793989,19.793962 0 0 1 -19.79399,-19.79396 19.793989,19.793962 0 0 1 19.79399,-19.79396 19.793989,19.793962 0 0 1 19.79399,19.79396 z" /></g><path
       id="lpe_path-effect34468"
       style="stroke-width:0.999999"
       class="powerclip"
       d="M 101.14598,210.87949 H 301.64316 V 359.51645 H 101.14598 Z m 117.10389,131.08093 a 19.794001,19.793974 0 0 0 -19.794,-19.79398 19.794001,19.793974 0 0 0 -19.794,19.79398 19.794001,19.793974 0 0 0 19.794,19.79397 19.794001,19.793974 0 0 0 19.794,-19.79397 z m 46.17185,0 a 19.794001,19.793974 0 0 0 -19.794,-19.79398 19.794001,19.793974 0 0 0 -19.794,19.79398 19.794001,19.793974 0 0 0 19.794,19.79397 19.794001,19.793974 0 0 0 19.794,-19.79397 z m 46.1718,0 a 19.793989,19.793962 0 0 0 -19.79399,-19.79396 19.793989,19.793962 0 0 0 -19.79399,19.79396 19.793989,19.793962 0 0 0 19.79399,19.79396 19.793989,19.793962 0 0 0 19.79399,-19.79396 z" /></clipPath></defs><sodipodi:namedview
   id="namedview36586"
   pagecolor="#ffffff"
   bordercolor="#666666"
   borderopacity="1.0"
   inkscape:showpageshadow="2"
   inkscape:pageopacity="0.0"
   inkscape:pagecheckerboard="0"
   inkscape:deskcolor="#d1d1d1"
   showgrid="false" />

<path
   d="m 261.16989,215.87949 h -31.6291 v 18.76727 h 31.6291 c 9.40553,0 16.70288,4.80442 16.70288,8.93947 v 83.22034 c 0,4.13506 -7.29735,8.93948 -16.70288,8.93948 H 141.61612 c -9.40553,0 -16.70287,-4.80442 -16.70287,-8.93948 v -83.21721 c 0,-4.13505 7.29734,-8.93947 16.70287,-8.93947 h 31.62285 v -18.76727 h -31.62285 c -19.89018,0 -35.47014,12.17057 -35.47014,27.70674 v 83.22034 c 0,15.5393 15.57996,27.70675 35.47014,27.70675 h 119.5569 c 19.88705,0 35.47014,-12.17058 35.47014,-27.70675 v -83.22034 c -0.003,-15.5393 -15.58309,-27.70987 -35.47327,-27.70987 z"
   id="path29134"
   style="fill:#000000;stroke-width:3.29611"
   clip-path="url(#clipath_lpe_path-effect34468)"
   inkscape:path-effect="#path-effect34468;#path-effect34945"
   inkscape:original-d="m 261.16989,215.87949 h -31.6291 v 18.76727 h 31.6291 c 9.40553,0 16.70288,4.80442 16.70288,8.93947 v 83.22034 c 0,4.13506 -7.29735,8.93948 -16.70288,8.93948 H 141.61612 c -9.40553,0 -16.70287,-4.80442 -16.70287,-8.93948 v -83.21721 c 0,-4.13505 7.29734,-8.93947 16.70287,-8.93947 h 31.62285 v -18.76727 h -31.62285 c -19.89018,0 -35.47014,12.17057 -35.47014,27.70674 v 83.22034 c 0,15.5393 15.57996,27.70675 35.47014,27.70675 h 119.5569 c 19.88705,0 35.47014,-12.17058 35.47014,-27.70675 v -83.22034 c -0.003,-15.5393 -15.58309,-27.70987 -35.47327,-27.70987 z"
   inkscape:export-filename="../code/imagej/napari-imagej/src/napari_imagej/resources/export_advanced.svg"
   inkscape:export-xdpi="133.075"
   inkscape:export-ydpi="133.075"
   transform="matrix(0.30338085,0,0,0.30339474,-28.75446,-42.086076)" /><path
   d="m 23.919646,15.445819 c 0.728784,0 1.456622,-0.278052 2.012698,-0.834154 l 3.564212,-3.564375 v 12.363336 5.69389 10.907597 c 0,1.572465 1.274427,2.846947 2.846817,2.846947 1.57239,0 2.846817,-1.274482 2.846817,-2.846947 V 29.104516 23.410626 10.854647 l 3.756847,3.757018 c 0.556075,0.556102 1.28486,0.834154 2.012699,0.834154 0.727834,0 1.456618,-0.278052 2.012697,-0.834154 1.112155,-1.111259 1.112155,-2.914324 0,-4.02558 L 34.472792,2.086053 c -0.556079,-0.5561043 -1.283915,-0.8322573 -2.01175,-0.8322573 -0.0076,0 -0.01423,0 -0.02181,0 -0.0076,0 -0.01423,0 -0.02184,0 -0.727835,0 -1.455669,0.276153 -2.011748,0.8322573 l -8.499643,8.500032 c -1.112154,1.111256 -1.112154,2.914321 0,4.02558 0.557029,0.556102 1.284864,0.834154 2.013648,0.834154 z"
   id="path27438"
   style="fill:#000000;stroke-width:1" /><ellipse
   style="fill:#000000;fill-opacity:1;stroke:#000000;stroke-width:1.59852;stroke-linecap:round;stroke-linejoin:round;stroke-miterlimit:4;stroke-dasharray:none;stroke-opacity:1"
   id="path27522-2-8"
   cx="59.468586"
   cy="61.662777"
   rx="3.954972"
   ry="3.955147" /><ellipse
   style="fill:#000000;fill-opacity:1;stroke:#000000;stroke-width:1.59852;stroke-linecap:round;stroke-linejoin:round;stroke-miterlimit:4;stroke-dasharray:none;stroke-opacity:1"
   id="path27522-2-8-8"
   cx="45.52634"
   cy="61.662777"
   rx="3.954972"
   ry="3.955147" /><ellipse
   style="fill:#000000;fill-opacity:1;stroke:#000000;stroke-width:1.59852;stroke-linecap:round;stroke-linejoin:round;stroke-miterlimit:4;stroke-dasharray:none;stroke-opacity:1"
   id="path27522-2-8-1"
   cx="31.568583"
   cy="61.662777"
   rx="3.954972"
   ry="3.955147" /></svg>
