<?xml version="1.0" encoding="UTF-8" standalone="no"?>
<!-- Uploaded to: SVG Repo, www.svgrepo.com, Generator: SVG Repo Mixer Tools -->

<svg
   fill="#000000"
   height="800px"
   width="800px"
   version="1.1"
   id="Capa_1"
   viewBox="0 0 67.671 67.671"
   xml:space="preserve"
   sodipodi:docname="export_advanced.svg"
   inkscape:version="1.2.2 (1:1.2.2+202305151915+b0a8486541)"
   xmlns:inkscape="http://www.inkscape.org/namespaces/inkscape"
   xmlns:sodipodi="http://sodipodi.sourceforge.net/DTD/sodipodi-0.dtd"
   xmlns="http://www.w3.org/2000/svg"
   xmlns:svg="http://www.w3.org/2000/svg"><defs
   id="defs11">
	
	
</defs><sodipodi:namedview
   id="namedview9"
   pagecolor="#ffffff"
   bordercolor="#666666"
   borderopacity="1.0"
   inkscape:showpageshadow="2"
   inkscape:pageopacity="0.0"
   inkscape:pagecheckerboard="0"
   inkscape:deskcolor="#d1d1d1"
   showgrid="false"
   inkscape:zoom="0.90774833"
   inkscape:cx="371.79909"
   inkscape:cy="440.65077"
   inkscape:window-width="1920"
   inkscape:window-height="1043"
   inkscape:window-x="2560"
   inkscape:window-y="0"
   inkscape:window-maximized="1"
   inkscape:current-layer="Capa_1" />
<path
   d="M 52.946,23.348 H 42.834 v 6 h 10.112 c 3.007,0 5.34,1.536 5.34,2.858 v 26.606 c 0,1.322 -2.333,2.858 -5.34,2.858 H 14.724 c -3.007,0 -5.34,-1.536 -5.34,-2.858 V 32.207 c 0,-1.322 2.333,-2.858 5.34,-2.858 h 10.11 v -6 h -10.11 c -6.359,0 -11.34,3.891 -11.34,8.858 v 26.606 c 0,4.968 4.981,8.858 11.34,8.858 h 38.223 c 6.358,0 11.34,-3.891 11.34,-8.858 V 32.207 C 64.286,27.239 59.305,23.348 52.946,23.348 Z"
   id="path2" /><path
   d="m 24.957,14.955 c 0.768,0 1.535,-0.293 2.121,-0.879 l 3.756,-3.756 v 13.028 6 11.494 c 0,1.657 1.343,3 3,3 1.657,0 3,-1.343 3,-3 v -11.494 -6 -13.231 l 3.959,3.959 c 0.586,0.586 1.354,0.879 2.121,0.879 0.767,0 1.535,-0.293 2.121,-0.879 1.172,-1.171 1.172,-3.071 0,-4.242 L 36.078,0.877 C 35.492,0.291 34.725,0 33.958,0 33.95,0 33.943,0 33.935,0 33.927,0 33.92,0 33.912,0 33.145,0 32.378,0.291 31.792,0.877 l -8.957,8.957 c -1.172,1.171 -1.172,3.071 0,4.242 0.587,0.586 1.354,0.879 2.122,0.879 z"
   id="path4" />
<path
   id="path27522-2-8-6"
   style="stroke:#000000;stroke-width:0;stroke-linecap:round;stroke-linejoin:round"
   d="m 52.131274,51.033653 a 4.7542253,4.7544355 0 0 1 -4.754226,4.754436 4.7542253,4.7544355 0 0 1 -4.754225,-4.754436 4.7542253,4.7544355 0 0 1 4.754225,-4.754435 4.7542253,4.7544355 0 0 1 4.754226,4.754435 z" /><path
   id="path27522-2-8-6-5"
   style="stroke:#000000;stroke-width:0;stroke-linecap:round;stroke-linejoin:round"
   d="m 38.689227,51.033653 a 4.7542253,4.7544355 0 0 1 -4.754226,4.754436 4.7542253,4.7544355 0 0 1 -4.754225,-4.754436 4.7542253,4.7544355 0 0 1 4.754225,-4.754435 4.7542253,4.7544355 0 0 1 4.754226,4.754435 z" /><path
   id="path27522-2-8-6-3"
   style="stroke:#000000;stroke-width:0;stroke-linecap:round;stroke-linejoin:round"
   d="m 25.247178,51.033653 a 4.7542253,4.7544355 0 0 1 -4.754226,4.754436 4.7542253,4.7544355 0 0 1 -4.754225,-4.754436 4.7542253,4.7544355 0 0 1 4.754225,-4.754435 4.7542253,4.7544355 0 0 1 4.754226,4.754435 z" /></svg>
